# xmcd CD database file
#
# Track frame offsets:
#	150
#	27679
#	38954
#	60474
#	75989
#	102631
#	123628
#	162207
#	193778
#	206525
#	230062
#	251198
#	275025
#
# Disc length: 4124 seconds
#
# Revision: 1
# Processed by: cddbd v1.5.2PL0 Copyright (c) Steve Scherf et al.
# Submitted via: CDex 1.51
#
DISCID=c2101a0d
DTITLE=TÖRÖK ÁDÁM and MINI - Messze vissz az út CD 
DYEAR=2008
DGENRE=Blues
TTITLE0=Asztalhoz leültem
TTITLE1=Vissza a városba
TTITLE2=Ido is kell több  szerelemhez 
TTITLE3=Szölohegy Ura
TTITLE4=Kolduskirály
TTITLE5=Alligátor
TTITLE6=Lusta blues
TTITLE7=Hivj fel
TTITLE8=SMS love
TTITLE9=Reg Volt
TTITLE10=Csak szavak szavak
TTITLE11=Andaluz éjszaka
TTITLE12=Blues délben, este, örökké
EXTD=YEAR: 2008
EXTT0=
EXTT1=
EXTT2=
EXTT3=
EXTT4=
EXTT5=
EXTT6=
EXTT7=
EXTT8=
EXTT9=
EXTT10=
EXTT11=
EXTT12=
PLAYORDER=
